<!-- public/decorative/scroll-end.svg -->
<svg viewBox="0 0 40 24" xmlns="http://www.w3.org/2000/svg">
  <!-- Main scroll roll shape -->
  <path 
    d="M2,12 C2,6 8,2 20,2 C32,2 38,6 38,12 C38,18 32,22 20,22 C8,22 2,18 2,12 Z" 
    fill="#FFF8DC" 
    stroke="#8B4513" 
    stroke-width="1.5"
  />
  
  <!-- Inner details/shading for volume -->
  <path 
    d="M4,12 C4,8 9,4 20,4 C31,4 36,8 36,12" 
    fill="none" 
    stroke="#8B4513" 
    stroke-width="0.7" 
    opacity="0.4"
  />
  
  <!-- Center decoration line -->
  <line 
    x1="8" 
    y1="12" 
    x2="32" 
    y2="12" 
    stroke="#8B4513" 
    stroke-width="0.7" 
    stroke-dasharray="1,1.5"
  />
  
  <!-- Small decorative circles at each end -->
  <circle cx="5" cy="12" r="1.5" fill="#DAA520" stroke="#8B4513" stroke-width="0.5" />
  <circle cx="35" cy="12" r="1.5" fill="#DAA520" stroke="#8B4513" stroke-width="0.5" />
  
  <!-- Small dots around the scroll for texture -->
  <g opacity="0.3">
    <circle cx="10" cy="8" r="0.5" fill="#8B4513" />
    <circle cx="15" cy="6" r="0.5" fill="#8B4513" />
    <circle cx="25" cy="6" r="0.5" fill="#8B4513" />
    <circle cx="30" cy="8" r="0.5" fill="#8B4513" />
    <circle cx="10" cy="16" r="0.5" fill="#8B4513" />
    <circle cx="15" cy="18" r="0.5" fill="#8B4513" />
    <circle cx="25" cy="18" r="0.5" fill="#8B4513" />
    <circle cx="30" cy="16" r="0.5" fill="#8B4513" />
  </g>
</svg>